<svg width="10" height="10" viewBox="0 0 10 10" fill="none" xmlns="http://www.w3.org/2000/svg">
<path d="M4.66498 1.05899L3.51598 3.38899L0.945985 3.76399C0.734219 3.79521 0.558478 3.94382 0.492508 4.14746C0.426539 4.35109 0.481754 4.57452 0.634985 4.72399L2.49398 6.53599L2.05398 9.09599C2.01823 9.30687 2.10506 9.5198 2.27809 9.64554C2.45112 9.77128 2.68045 9.78812 2.86998 9.68899L5.16998 8.47999L7.46998 9.68899C7.65952 9.78812 7.88885 9.77128 8.06188 9.64554C8.23491 9.5198 8.32174 9.30687 8.28598 9.09599L7.84598 6.53599L9.70498 4.72399C9.85822 4.57452 9.91343 4.35109 9.84746 4.14746C9.78149 3.94382 9.60575 3.79521 9.39398 3.76399L6.82298 3.38899L5.67498 1.05899C5.5802 0.866663 5.3844 0.744873 5.16998 0.744873C4.95557 0.744873 4.75977 0.866663 4.66498 1.05899Z" fill="#FFC107"/>
</svg>
