<svg xmlns="http://www.w3.org/2000/svg" width="13" height="20" viewBox="0 0 13 20" fill="none">
<path d="M4.02902 9.99701L11.971 2.43601C12.2518 2.17562 12.4115 1.80998 12.4115 1.42701C12.4115 1.04404 12.2518 0.678401 11.971 0.418012C11.3722 -0.139012 10.4448 -0.139012 9.84602 0.418012L0.846025 8.98601C0.574862 9.23932 0.417317 9.59127 0.409035 9.96225C0.400754 10.3332 0.542436 10.6919 0.802025 10.957L9.83803 19.584C10.4372 20.1401 11.3638 20.1401 11.963 19.584C12.2438 19.3236 12.4035 18.958 12.4035 18.575C12.4035 18.192 12.2438 17.8264 11.963 17.566L4.02902 9.99701Z" fill="#333333"/>
</svg>