<svg width="22" height="18" viewBox="0 0 22 18" fill="none" xmlns="http://www.w3.org/2000/svg">
<rect y="0.5" width="21.651" height="17" rx="2" fill="white"/>
<mask id="mask0_0_8956" style="mask-type:luminance" maskUnits="userSpaceOnUse" x="0" y="0" width="22" height="18">
<rect y="0.5" width="21.651" height="17" rx="2" fill="white"/>
</mask>
<g mask="url(#mask0_0_8956)">
<rect y="0.5" width="21.651" height="17" fill="#05AB41"/>
<path d="M2.73103 9.47494C2.58343 9.36136 2.49695 9.18568 2.49695 8.99944C2.49695 8.8132 2.58343 8.63752 2.73103 8.52394L10.546 2.96594C10.7129 2.84452 10.9391 2.84452 11.106 2.96594L18.921 8.52394C19.0686 8.63752 19.1551 8.8132 19.1551 8.99944C19.1551 9.18568 19.0686 9.36136 18.921 9.47494L11.106 15.0339C10.9391 15.1554 10.7129 15.1554 10.546 15.0339L2.73103 9.47494Z" fill="#FDD216"/>
<path d="M10.826 12.966C12.9156 12.8629 14.5289 11.0901 14.435 8.99996C14.5295 6.90947 12.916 5.13601 10.826 5.03296C8.73588 5.13601 7.12246 6.90947 7.21696 8.99996C7.12302 11.0901 8.73629 12.8629 10.826 12.966Z" fill="#053087"/>
<mask id="mask1_0_8956" style="mask-type:luminance" maskUnits="userSpaceOnUse" x="7" y="5" width="8" height="8">
<path fill-rule="evenodd" clip-rule="evenodd" d="M10.826 12.966C12.9156 12.8629 14.5289 11.0901 14.435 8.99996C14.5295 6.90947 12.916 5.13601 10.826 5.03296C8.73588 5.13601 7.12246 6.90947 7.21696 8.99996C7.12302 11.0901 8.73629 12.8629 10.826 12.966Z" fill="white"/>
</mask>
<g mask="url(#mask1_0_8956)">
<path d="M6.78894 7.96296C7.35594 7.45796 9.18394 7.93596 10.8889 8.43596C12.3578 8.82892 13.7097 9.57176 14.8289 10.601" stroke="white" stroke-width="1.333" stroke-linecap="square"/>
</g>
</g>
</svg>
