<svg width="22" height="18" viewBox="0 0 22 18" fill="none" xmlns="http://www.w3.org/2000/svg">
<mask id="mask0_0_9059" style="mask-type:luminance" maskUnits="userSpaceOnUse" x="0" y="0" width="22" height="18">
<rect y="0.5" width="21.651" height="17" rx="2" fill="white"/>
</mask>
<g mask="url(#mask0_0_9059)">
<rect y="0.5" width="21.651" height="17" fill="#F1361D"/>
<path fill-rule="evenodd" clip-rule="evenodd" d="M8.53394 3.27807L9.09394 3.83807L9.09794 3.83307L9.22594 3.01207L9.73794 2.39507L8.98894 2.25707L8.42794 1.69507L8.30094 2.51807L7.78894 3.13607L8.53394 3.27807ZM9.79394 6.01507L9.81094 5.18207L9.41694 4.46907L10.1759 4.48807L10.8249 4.05407L10.8069 4.88807L11.2069 5.60207L10.4479 5.58207L9.79994 6.01607L9.79394 6.01507ZM10.2219 8.42507L10.9009 8.79507L10.8999 8.79307L10.8169 7.96407L11.1549 7.21607L10.3989 7.30807L9.71894 6.93707L9.80394 7.76907L9.46694 8.51707L10.2219 8.42507ZM8.26994 10.2951L8.27894 11.1341L8.27994 11.1381L8.91394 10.6801L9.67394 10.6701L9.25694 9.97007L9.24694 9.13607L8.61194 9.59507H7.85294L8.26994 10.2951Z" fill="#FFDC42"/>
<path d="M5.15501 7.49309L3.33701 8.91809L4.00701 6.57709L2.21301 5.11609L4.44601 5.09409L5.15501 2.76709L5.86401 5.09409L8.09601 5.11609L6.30201 6.57709L6.97301 8.91809L5.15501 7.49309Z" fill="#FFDC42"/>
</g>
</svg>
