<svg xmlns="http://www.w3.org/2000/svg" width="24" height="25" viewBox="0 0 24 25" fill="none">
<path d="M19.7 4.79997C19.5175 4.60849 19.2645 4.50012 19 4.50012C18.7354 4.50012 18.4825 4.60849 18.3 4.79997L12 11.1L5.69997 4.79997C5.51747 4.60849 5.2645 4.50012 4.99997 4.50012C4.73545 4.50012 4.48247 4.60849 4.29997 4.79997C4.10849 4.98247 4.00012 5.23545 4.00012 5.49997C4.00012 5.7645 4.10849 6.01747 4.29997 6.19997L10.6 12.5L4.29997 18.8C4.10849 18.9825 4.00012 19.2354 4.00012 19.5C4.00012 19.7645 4.10849 20.0175 4.29997 20.2C4.47807 20.3977 4.73395 20.5074 4.99997 20.5C5.26599 20.5074 5.52188 20.3977 5.69997 20.2L12 13.9L18.3 20.2C18.4825 20.3915 18.7354 20.4998 19 20.4998C19.2645 20.4998 19.5175 20.3915 19.7 20.2C19.8915 20.0175 19.9998 19.7645 19.9998 19.5C19.9998 19.2354 19.8915 18.9825 19.7 18.8L13.4 12.5L19.7 6.19997C19.8915 6.01747 19.9998 5.7645 19.9998 5.49997C19.9998 5.23545 19.8915 4.98247 19.7 4.79997Z" fill="#333333"/>
</svg> 