<svg xmlns="http://www.w3.org/2000/svg" width="24" height="17" viewBox="0 0 24 17" fill="none">
<path fill-rule="evenodd" clip-rule="evenodd" d="M23.535 7.92101C21.3962 3.63976 17.0356 0.921051 12.25 0.88501C7.46425 0.921701 3.10389 3.6407 0.964982 7.92201C0.780879 8.28606 0.780879 8.71596 0.964982 9.08001C3.10381 13.3613 7.46434 16.08 12.25 16.116C17.0357 16.0793 21.3961 13.3603 23.535 9.07901C23.7191 8.71496 23.7191 8.28506 23.535 7.92101ZM12.25 14.212C9.93969 14.212 7.85689 12.8203 6.97278 10.6859C6.08867 8.55147 6.57737 6.09464 8.21099 4.46102C9.84461 2.8274 12.3014 2.3387 14.4359 3.22281C16.5703 4.10692 17.962 6.18972 17.962 8.50001C17.962 11.6547 15.4046 14.212 12.25 14.212ZM11.25 4.84301C11.5751 4.74845 11.9114 4.698 12.25 4.69301L12.254 4.69601C13.8843 4.69212 15.3355 5.72865 15.8606 7.27213C16.3857 8.81561 15.8677 10.522 14.5732 11.5132C13.2787 12.5043 11.4962 12.5592 10.1431 11.6497C8.79006 10.7402 8.16795 9.0689 8.59698 7.49601C9.35301 8.04278 10.3942 7.95969 11.0539 7.29995C11.7137 6.6402 11.7968 5.59904 11.25 4.84301Z" fill="#8A8D9F"/>
</svg>