<svg width="20" height="20" viewBox="0 0 20 20" fill="none" xmlns="http://www.w3.org/2000/svg">
<path d="M3.33301 6.66659V4.99992C3.33301 4.55789 3.5086 4.13397 3.82116 3.82141C4.13372 3.50885 4.55765 3.33325 4.99967 3.33325H6.66634M3.33301 13.3333V14.9999C3.33301 15.4419 3.5086 15.8659 3.82116 16.1784C4.13372 16.491 4.55765 16.6666 4.99967 16.6666H6.66634M13.333 3.33325H14.9997C15.4417 3.33325 15.8656 3.50885 16.1782 3.82141C16.4907 4.13397 16.6663 4.55789 16.6663 4.99992V6.66659M13.333 16.6666H14.9997C15.4417 16.6666 15.8656 16.491 16.1782 16.1784C16.4907 15.8659 16.6663 15.4419 16.6663 14.9999V13.3333M7.49967 8.33325H7.50801M12.4997 8.33325H12.508M7.91634 12.4999C8.18791 12.7771 8.51205 12.9973 8.86978 13.1476C9.22751 13.2979 9.61164 13.3753 9.99967 13.3753C10.3877 13.3753 10.7718 13.2979 11.1296 13.1476C11.4873 12.9973 11.8114 12.7771 12.083 12.4999" stroke="#122F52" stroke-width="1.5" stroke-linecap="round" stroke-linejoin="round"/>
</svg>
