<svg width="101" height="134" viewBox="0 0 101 134" fill="none" xmlns="http://www.w3.org/2000/svg">
<path d="M60.6398 65.787C58.2506 58.7556 50.7587 54.8416 43.6225 56.8966C36.4862 58.9517 32.2234 66.2508 33.9398 73.476C38.9468 90.884 57.2608 106.505 74.0348 119.776C75.2394 120.73 76.9893 120.527 77.9433 119.323C78.8974 118.118 78.6944 116.368 77.4898 115.414C61.3898 102.674 43.8378 87.759 39.2898 71.937C38.4392 69.0615 39.1958 65.9507 41.2721 63.7871C43.3483 61.6234 46.4253 60.7392 49.3334 61.4706C52.2415 62.202 54.5342 64.4366 55.3398 67.325C58.3778 77.895 73.4818 90.958 87.8518 102.325C89.0564 103.279 90.8063 103.076 91.7603 101.872C92.7144 100.667 92.5114 98.9171 91.3068 97.963C83.7118 91.979 63.6168 76.079 60.6398 65.787Z" fill="#1CAE81"/>
<path d="M81.726 58.6141C75.6698 39.8436 55.6896 29.3881 36.8153 35.1126C17.9411 40.8371 7.13507 60.6298 12.526 79.6021L12.538 79.6431C17.106 95.5101 7.31399 99.9101 4.18799 100.878C2.74688 101.357 1.95643 102.904 2.41205 104.353C2.86767 105.801 4.40097 106.617 5.85699 106.185C14.363 103.526 22.625 94.5851 17.879 78.1011C13.2022 61.8614 22.5755 44.9052 38.815 40.2281L38.841 40.2211C54.8965 35.7083 71.6245 44.8074 76.56 60.7381C76.6256 60.9552 76.7191 61.1629 76.838 61.3561C77.127 61.8351 77.723 62.8411 95.603 77.3501C96.3733 77.9854 97.4251 78.1591 98.3588 77.8053C99.2926 77.4515 99.9651 76.6244 100.121 75.6381C100.277 74.6518 99.8921 73.6576 99.113 73.0331C92.613 67.7611 83.116 59.9221 81.726 58.6141Z" fill="#1CAE81"/>
<path d="M71.3441 62.7101C67.5023 49.4429 53.6563 41.7796 40.3741 45.5691C27.3337 49.5953 19.7641 63.1637 23.1881 76.3751C28.8071 101.966 24.6071 107.875 13.0791 111.475C11.638 111.954 10.8475 113.501 11.3032 114.95C11.7588 116.398 13.2921 117.214 14.7481 116.782C30.8541 111.775 34.3531 101.249 28.6561 75.1741C25.8939 64.8385 31.7424 54.1568 41.9381 50.9161C52.2767 47.9783 63.0463 53.9449 66.0381 64.2681C67.1511 68.0621 70.1051 73.2681 92.8871 91.3001C94.0939 92.204 95.8011 91.982 96.7367 90.7995C97.6722 89.617 97.4954 87.9045 96.3381 86.9381C75.6611 70.5821 72.1221 65.4001 71.3441 62.7101Z" fill="#1CAE81"/>
<path d="M78.9991 101.431C69.5861 94.288 53.8311 82.338 49.9531 68.864C49.4985 67.4268 47.9818 66.6131 46.5329 67.0291C45.084 67.4451 44.23 68.9395 44.6071 70.399C48.9911 85.654 65.6701 98.305 75.6341 105.865C77.6589 107.323 79.6084 108.883 81.4751 110.538C82.5691 111.576 84.291 111.554 85.3574 110.487C86.4239 109.421 86.4464 107.699 85.4081 106.605C83.3709 104.761 81.2312 103.034 78.9991 101.431Z" fill="#1CAE81"/>
<path d="M63.945 120.779C61.1332 115.563 55.9549 112.046 50.07 111.355C40.612 111.355 39.149 127.433 38.943 130.655C38.8477 132.187 40.0112 133.507 41.543 133.604H41.721C43.1923 133.607 44.4115 132.464 44.503 130.995C44.853 125.265 47.045 116.92 50.066 116.92C54.188 116.92 57.115 120.892 59.466 124.08C60.2414 125.186 61.0907 126.238 62.008 127.229C63.1051 128.245 64.8091 128.212 65.8661 127.154C66.923 126.097 66.9548 124.392 65.938 123.296C65.2174 122.501 64.5493 121.661 63.938 120.779H63.945Z" fill="#1CAE81"/>
<path d="M38.8158 96.6021C38.2988 95.2147 36.7856 94.4754 35.3733 94.9201C33.9611 95.3648 33.1446 96.8378 33.5158 98.2711C35.8968 105.709 31.2158 120.307 24.1808 122.591C23.2154 122.874 22.4779 123.656 22.2522 124.637C22.0264 125.617 22.3476 126.643 23.0921 127.32C23.8366 127.996 24.8884 128.218 25.8428 127.9L25.8998 127.881C36.6018 124.435 41.7638 105.843 38.8158 96.6021Z" fill="#1CAE81"/>
<path d="M98.215 58.637C94.738 57.524 92.006 53.074 88.841 47.994C82.141 37.168 72.958 22.342 47.289 22.342C21.185 22.3723 0.030873 43.526 1.38463e-05 69.63C-0.0190675 70.6363 0.506871 71.5745 1.37532 72.0832C2.24376 72.592 3.31927 72.592 4.18771 72.0832C5.05616 71.5745 5.5821 70.6363 5.56301 69.63C5.58727 46.5948 24.2558 27.9276 47.291 27.905C69.861 27.905 77.767 40.667 84.12 50.926C87.859 56.962 91.085 62.175 96.5 63.933C97.4473 64.2712 98.5033 64.0717 99.2619 63.4113C100.021 62.7509 100.364 61.7324 100.159 60.7476C99.9548 59.7628 99.2348 58.965 98.276 58.661L98.219 58.642L98.215 58.637Z" fill="#1CAE81"/>
<path d="M5.563 91.883C6.52748 91.8829 7.42308 91.3832 7.92978 90.5626C8.43648 89.7419 8.48197 88.7174 8.05 87.855C6.86264 85.6295 6.02388 83.235 5.563 80.755C5.53426 79.2394 4.2974 78.0258 2.7815 78.0258C1.2656 78.0258 0.028739 79.2394 0 80.755C0.446477 84.1096 1.48815 87.3575 3.076 90.346C3.54746 91.2876 4.50998 91.8825 5.563 91.883Z" fill="#1CAE81"/>
<path d="M4.11687 33.0631C5.42859 33.8625 7.14003 33.4475 7.93987 32.1361V32.1281C10.3549 28.1451 22.2489 16.7791 44.5019 16.7791C65.8869 16.7791 81.1019 27.6111 83.8459 32.1281C84.6431 33.4417 86.3543 33.8603 87.6679 33.0631C88.9815 32.2658 89.4001 30.5547 88.6029 29.2411C84.7859 22.9541 67.9349 11.2161 44.5029 11.2161C19.5849 11.2161 6.22787 24.2291 3.17787 29.2471C2.38529 30.5604 2.80535 32.2675 4.11687 33.0631Z" fill="#1CAE81"/>
<path d="M20.5842 10.9711C21.8582 10.4151 22.9372 9.85806 23.9612 9.30206C28.1452 7.19406 31.1542 5.65206 44.5062 5.65206C53.5216 5.15533 62.5386 6.59917 70.9482 9.88606C72.0112 10.2861 73.0792 10.6761 74.1972 11.0601C74.4889 11.1614 74.7953 11.2141 75.1042 11.2161C76.4655 11.2189 77.6289 10.2363 77.8538 8.89373C78.0787 7.55116 77.2991 6.24301 76.0112 5.80206C74.9322 5.42906 73.9112 5.05106 72.8852 4.68906C63.8557 1.16788 54.1826 -0.399888 44.5032 0.0890632C29.7942 0.0890632 26.1112 1.98006 21.4372 4.37806C20.4972 4.86206 19.4962 5.37806 18.3272 5.89706C17.3897 6.25445 16.7173 7.08891 16.5674 8.08092C16.4175 9.07294 16.8134 10.0688 17.6034 10.6872C18.3934 11.3056 19.4552 11.4508 20.3822 11.0671C20.4558 11.038 20.5275 11.0046 20.5972 10.9671L20.5842 10.9711Z" fill="#1CAE81"/>
<path d="M94.7051 48.223C95.2221 49.6105 96.7353 50.3498 98.1476 49.9051C99.5598 49.4603 100.376 47.9874 100.005 46.554C98.4264 42.4674 96.4685 38.5376 94.1571 34.816C93.3521 33.5071 91.6385 33.0986 90.3296 33.9035C89.0207 34.7085 88.6121 36.4221 89.4171 37.731C91.4888 41.0638 93.2586 44.5751 94.7051 48.223Z" fill="#1CAE81"/>
<path d="M75.7399 120.38C75.1138 120.38 74.506 120.168 74.0149 119.78C57.2419 106.5 38.9439 90.8801 33.9369 73.4801C32.2205 66.2548 36.4833 58.9558 43.6195 56.9007C50.7558 54.8456 58.2477 58.7596 60.6369 65.7911C63.5969 76.0771 83.6909 91.9831 91.2369 97.9691C92.0596 98.5522 92.5024 99.5348 92.3941 100.537C92.2859 101.54 91.6436 102.405 90.7154 102.8C89.7872 103.194 88.7184 103.055 87.9219 102.436C87.8759 102.402 87.8309 102.367 87.7879 102.33C73.4179 90.9591 58.3019 77.9011 55.2709 67.3301C53.9772 62.9248 49.3686 60.3915 44.9561 61.6599C40.5435 62.9283 37.9838 67.5223 39.2269 71.9421C43.7779 87.7641 61.3269 102.679 77.4269 115.419C78.3547 116.155 78.7153 117.397 78.3255 118.515C77.9357 119.633 76.8809 120.382 75.6969 120.381L75.7399 120.38Z" fill="#1CAE81"/>
<path d="M5.00784 106.297C3.63652 106.293 2.47271 105.29 2.26593 103.935C2.05916 102.579 2.87109 101.275 4.17884 100.862C7.28884 99.8891 17.0788 95.4881 12.5238 79.6271C9.87242 70.4101 10.9911 60.5174 15.6338 52.1253C20.2765 43.7332 28.0628 37.5292 37.2798 34.8781L37.3078 34.8701C56.0883 29.5937 75.6876 40.0701 81.7338 58.6171C83.1188 59.9171 92.6158 67.7631 99.1138 73.0371C100.221 74.0263 100.356 75.7103 99.4209 76.8633C98.486 78.0164 96.8105 78.2324 95.6138 77.3541C77.7278 62.8391 77.1328 61.8321 76.8428 61.3541C76.7277 61.1617 76.636 60.9563 76.5698 60.7421C71.6101 44.755 54.7253 35.7199 38.6727 40.4632C22.62 45.2066 13.3577 61.9679 17.8838 78.0831V78.0891C22.6238 94.5621 14.3678 103.513 5.85584 106.173C5.58138 106.258 5.29525 106.3 5.00784 106.297Z" fill="#1CAE81"/>
<path d="M13.9092 116.918C12.5379 116.914 11.3741 115.911 11.1673 114.556C10.9605 113.2 11.7725 111.896 13.0802 111.483C24.6072 107.883 28.8022 101.959 23.1802 76.383C19.7564 63.171 27.325 49.6018 40.3652 45.573C53.6479 41.792 67.4897 49.4516 71.3412 62.714C72.1142 65.401 75.6472 70.58 96.2922 86.926C97.1149 87.5091 97.5577 88.4918 97.4494 89.4944C97.3412 90.4969 96.6989 91.3624 95.7707 91.7565C94.8425 92.1506 93.7737 92.0115 92.9772 91.393C92.9312 91.359 92.8872 91.324 92.8432 91.287C70.0352 73.251 67.0792 68.038 65.9942 64.255C63.0109 53.9254 52.2329 47.9563 41.8942 50.908C31.6788 54.15 25.826 64.8595 28.6142 75.208C34.3352 101.284 30.8352 111.782 14.7062 116.808C14.4463 116.883 14.1767 116.919 13.9062 116.915L13.9092 116.918Z" fill="#1CAE81"/>
<path d="M83.4501 111.355C82.713 111.356 82.0059 111.064 81.4841 110.543C79.6169 108.886 77.6674 107.325 75.6431 105.864C65.6761 98.303 48.9971 85.652 44.6131 70.398C44.3127 69.4449 44.5466 68.4039 45.2258 67.6709C45.9051 66.938 46.9252 66.6256 47.8984 66.8526C48.8716 67.0796 49.6483 67.8112 49.9331 68.769L49.9601 68.862C53.8541 82.336 69.5841 94.286 79.0001 101.43C81.2332 103.035 83.3745 104.764 85.4141 106.609C86.207 107.405 86.4438 108.599 86.0143 109.637C85.5848 110.675 84.5733 111.352 83.4501 111.355Z" fill="#1CAE81"/>
<path d="M41.7249 133.608H41.5469C40.0151 133.511 38.8516 132.191 38.9469 130.659C39.1469 127.438 40.6159 111.359 50.0739 111.359C55.9709 112.045 61.1624 115.565 63.9819 120.789C64.5888 121.671 65.2543 122.511 65.9739 123.304C67.004 124.399 66.978 126.114 65.9151 127.177C64.8522 128.24 63.137 128.267 62.0419 127.237C61.1228 126.249 60.2734 125.199 59.4999 124.094C57.1299 120.894 54.1999 116.917 50.0759 116.917C47.0599 116.917 44.8619 125.259 44.5119 130.998C44.4212 132.469 43.1987 133.614 41.7249 133.608Z" fill="#1CAE81"/>
<path d="M25.0348 128.046C23.6643 128.048 22.4965 127.052 22.2828 125.698C22.0691 124.344 22.8733 123.036 24.1778 122.616C31.2098 120.33 35.8608 105.731 33.5128 98.293C33.1537 97.3295 33.3554 96.2466 34.0371 95.4769C34.7189 94.7072 35.7696 94.3763 36.7694 94.6165C37.7692 94.8566 38.555 95.6286 38.8128 96.624C41.7668 105.865 36.5878 124.441 25.8948 127.934C25.6157 128.016 25.3255 128.054 25.0348 128.046Z" fill="#1CAE81"/>
<path d="M2.782 72.412C1.24554 72.412 0 71.1665 0 69.63C0.0308613 43.5252 21.1862 22.3712 47.291 22.342C72.96 22.342 82.145 37.168 88.849 47.994C92.015 53.094 94.749 57.507 98.223 58.637C99.2094 58.9019 99.9714 59.6859 100.208 60.6795C100.445 61.673 100.118 62.7163 99.3565 63.3973C98.5953 64.0783 97.5222 64.2874 96.561 63.942L96.504 63.923C91.085 62.165 87.859 56.952 84.12 50.916C77.764 40.667 69.858 27.905 47.291 27.905C24.257 27.9293 5.59025 46.596 5.566 69.63C5.566 70.3682 5.27262 71.0761 4.75046 71.5979C4.2283 72.1197 3.52018 72.4126 2.782 72.412Z" fill="#1CAE81"/>
<path d="M5.563 91.8831C4.50834 91.8849 3.54336 91.2901 3.071 90.3471C1.48361 87.3588 0.443569 84.1107 0 80.7561C0.028739 79.2405 1.2656 78.0269 2.7815 78.0269C4.2974 78.0269 5.53426 79.2405 5.563 80.7561C6.02504 83.2358 6.86374 85.6301 8.05 87.8561C8.48197 88.7185 8.43648 89.743 7.92978 90.5637C7.42308 91.3843 6.52748 91.884 5.563 91.8841V91.8831Z" fill="#1CAE81"/>
<path d="M86.2311 33.4681C85.2593 33.4668 84.3585 32.9584 83.8551 32.1271C81.1131 27.6151 65.8921 16.7781 44.5061 16.7781C22.2551 16.7781 10.3551 28.1441 7.93913 32.1271C7.16903 33.4228 5.50711 33.8696 4.19114 33.1346C2.87516 32.3997 2.38385 30.7504 3.08313 29.4151C3.11613 29.3561 3.15113 29.2981 3.18813 29.2421C6.23113 24.2281 19.5881 11.2151 44.5071 11.2151C67.9401 11.2151 84.7911 22.9531 88.6071 29.2461C89.127 30.1046 89.1441 31.1765 88.652 32.0512C88.1599 32.9259 87.2348 33.4677 86.2311 33.4691V33.4681Z" fill="#1CAE81"/>
<path d="M75.1041 11.2151C74.7955 11.2158 74.489 11.1651 74.1971 11.0651C73.0841 10.6811 72.0051 10.2811 70.9421 9.89109C62.5343 6.60368 53.5192 5.15816 44.5051 5.65209C31.1531 5.65209 28.1431 7.19309 23.9881 9.32409C22.9591 9.85309 21.8801 10.4031 20.6111 10.9931C19.2236 11.531 17.6583 10.8836 17.0562 9.52272C16.4541 8.16184 17.0278 6.56802 18.3591 5.90309C19.5331 5.37409 20.5291 4.86309 21.4751 4.37909C26.1111 1.98409 29.7991 0.0920854 44.5031 0.0920854C54.1784 -0.401434 63.8484 1.16088 72.8761 4.67609C73.9001 5.05409 74.9231 5.43809 76.0021 5.78909C77.315 6.21132 78.1204 7.53178 77.8949 8.8924C77.6694 10.253 76.4811 11.243 75.1021 11.2191L75.1041 11.2151Z" fill="#1CAE81"/>
<path d="M97.358 50.1581C96.1494 50.1558 95.0805 49.3735 94.713 48.2221C93.2669 44.5666 91.4972 41.0477 89.425 37.7071C88.9043 36.8604 88.8748 35.8002 89.3478 34.9259C89.8207 34.0515 90.7241 33.496 91.7178 33.4684C92.7114 33.4408 93.6443 33.9454 94.165 34.7921C96.4737 38.5141 98.4293 42.4439 100.006 46.5301C100.276 47.3755 100.126 48.2988 99.6023 49.0155C99.0791 49.7322 98.2454 50.1563 97.358 50.1571V50.1581Z" fill="#1CAE81"/>
</svg>
