<svg width="21" height="17" viewBox="0 0 21 17" fill="none" xmlns="http://www.w3.org/2000/svg">
<path fill-rule="evenodd" clip-rule="evenodd" d="M0.00100011 1.96167C0.000632015 0.878767 0.8781 0.000552983 1.961 2.5436e-07C2.48126 -0.00026454 2.98031 0.206223 3.34828 0.574011C3.71626 0.941798 3.923 1.44074 3.923 1.961C3.923 3.0439 3.04523 3.92182 1.96233 3.922C0.879433 3.92218 0.00136821 3.04457 0.00100011 1.96167ZM0 8.499C0 7.41597 0.87797 6.538 1.961 6.538C3.04403 6.538 3.922 7.41597 3.922 8.499C3.922 9.58203 3.04403 10.46 1.961 10.46C0.87797 10.46 0 9.58203 0 8.499ZM1.961 13.076C0.87797 13.076 0 13.954 0 15.037C0 16.12 0.87797 16.998 1.961 16.998C3.04403 16.998 3.922 16.12 3.922 15.037C3.922 13.954 3.04403 13.076 1.961 13.076ZM7.192 13.73H20.267V13.725C20.4411 13.725 20.6081 13.7944 20.7309 13.918C20.8536 14.0415 20.9221 14.2089 20.921 14.383V15.692C20.921 16.0532 20.6282 16.346 20.267 16.346H7.192C6.83081 16.346 6.538 16.0532 6.538 15.692V14.384C6.538 14.0228 6.83081 13.73 7.192 13.73ZM20.267 0.654001H7.192C6.83081 0.654001 6.538 0.946807 6.538 1.308V2.615C6.538 2.97619 6.83081 3.269 7.192 3.269H20.267C20.6282 3.269 20.921 2.97619 20.921 2.615V1.308C20.921 0.946807 20.6282 0.654001 20.267 0.654001ZM7.192 7.192H20.267C20.6278 7.192 20.9204 7.4842 20.921 7.845V9.154C20.921 9.5152 20.6282 9.808 20.267 9.808H7.192C6.83081 9.808 6.538 9.5152 6.538 9.154V7.846C6.538 7.48481 6.83081 7.192 7.192 7.192Z" fill="#1E1E1E"/>
</svg>
