<svg width="9" height="12" viewBox="0 0 9 12" fill="none" xmlns="http://www.w3.org/2000/svg">
<path d="M1.02593 7.27597C1.22781 7.07605 1.55306 7.07605 1.75493 7.27597L4.16893 9.67797L4.16893 0.510974C4.16893 0.226547 4.39951 -0.00402641 4.68393 -0.00402641C4.96836 -0.00402641 5.19893 0.226547 5.19893 0.510974L5.19893 9.67797L7.61293 7.26797C7.81569 7.07019 8.13918 7.07019 8.34193 7.26797C8.54195 7.46826 8.54195 7.79269 8.34193 7.99297L5.05193 11.259C5.00434 11.3035 4.94957 11.3397 4.88993 11.366C4.82679 11.3931 4.75866 11.4068 4.68993 11.406C4.55503 11.4059 4.42548 11.3532 4.32893 11.259L1.03893 7.99297C0.940375 7.9006 0.883384 7.77228 0.880936 7.63722C0.878487 7.50216 0.930789 7.37186 1.02593 7.27597Z" fill="#333333"/>
</svg>
