<svg width="9" height="12" viewBox="0 0 9 12" fill="none" xmlns="http://www.w3.org/2000/svg">
<path d="M8.34491 4.13394C8.14304 4.33387 7.81779 4.33387 7.61591 4.13394L5.20191 1.73194V10.8989C5.20191 11.1834 4.97134 11.4139 4.68691 11.4139C4.40249 11.4139 4.17191 11.1834 4.17191 10.8989V1.73194L1.75791 4.14194C1.55516 4.33972 1.23167 4.33972 1.02891 4.14194C0.828903 3.94166 0.828903 3.61722 1.02891 3.41694L4.31891 0.150938C4.36651 0.106408 4.42128 0.0702326 4.48091 0.0439382C4.54406 0.0167811 4.61219 0.00315497 4.68091 0.0039382C4.81582 0.00396277 4.94537 0.0567161 5.04191 0.150938L8.33191 3.41694C8.43047 3.50931 8.48747 3.63763 8.48991 3.77269C8.49236 3.90775 8.44006 4.03805 8.34491 4.13394Z" fill="#333333"/>
</svg>
