<svg width="23" height="18" viewBox="0 0 23 18" fill="none" xmlns="http://www.w3.org/2000/svg">
<rect x="1" y="0.5" width="21.651" height="17" rx="1.75" fill="white" stroke="#F5F5F5" stroke-width="0.5"/>
<mask id="mask0_0_9027" style="mask-type:luminance" maskUnits="userSpaceOnUse" x="1" y="0" width="22" height="18">
<rect x="1.19299" y="0.713013" width="21.265" height="16.575" rx="1.75" fill="white"/>
</mask>
<g mask="url(#mask0_0_9027)">
<path d="M11.825 12.9679C13.9151 12.8649 15.5285 11.0914 15.434 9.00094C15.5285 6.91045 13.9151 5.13698 11.825 5.03394C9.7349 5.13698 8.12148 6.91045 8.21598 9.00094C8.12148 11.0914 9.7349 12.8649 11.825 12.9679Z" fill="#E01B41"/>
<mask id="mask1_0_9027" style="mask-type:luminance" maskUnits="userSpaceOnUse" x="8" y="5" width="8" height="8">
<path fill-rule="evenodd" clip-rule="evenodd" d="M11.825 12.9679C13.9151 12.8649 15.5285 11.0914 15.434 9.00094C15.5285 6.91045 13.9151 5.13698 11.825 5.03394C9.7349 5.13698 8.12148 6.91045 8.21598 9.00094C8.12148 11.0914 9.7349 12.8649 11.825 12.9679Z" fill="white"/>
</mask>
<g mask="url(#mask1_0_9027)">
<path d="M8.21603 9.56797C9.24803 10.631 10.794 11.268 11.825 9.56797C12.856 7.86797 14.918 7.86797 15.434 9.56797C15.7329 10.6816 15.7329 11.8543 15.434 12.968H8.21603C8.21603 12.968 7.18503 8.50597 8.21603 9.56797Z" fill="#0E4B9C"/>
</g>
<path opacity="0.75" fill-rule="evenodd" clip-rule="evenodd" d="M18.492 6.68396C18.3971 6.68186 18.3111 6.62714 18.269 6.54196L16.985 4.09096C16.9505 4.02486 16.9412 3.9484 16.959 3.87596C16.9752 3.8052 17.0182 3.7435 17.079 3.70396L17.526 3.42096C17.5642 3.39614 17.6086 3.38262 17.654 3.38196C17.7492 3.38424 17.8352 3.43939 17.877 3.52496L19.166 5.98196C19.2005 6.04809 19.2098 6.12451 19.192 6.19696C19.1761 6.26804 19.133 6.3301 19.072 6.36996L18.625 6.65296C18.5856 6.67446 18.5409 6.68451 18.496 6.68196L18.492 6.68396ZM17.156 7.53496C17.061 7.53309 16.9749 7.47829 16.933 7.39296L15.649 4.93996C15.6148 4.87411 15.6056 4.79809 15.623 4.72596C15.639 4.65488 15.6821 4.59282 15.743 4.55296L16.19 4.26996C16.2274 4.24593 16.2707 4.23277 16.315 4.23196C16.4101 4.23383 16.4961 4.28862 16.538 4.37396L17.827 6.82696C17.8611 6.89324 17.87 6.96963 17.852 7.04196C17.8358 7.11267 17.7928 7.17434 17.732 7.21396L17.285 7.49696C17.247 7.52188 17.2026 7.53541 17.157 7.53596L17.156 7.53496ZM16.314 13.768C16.2683 13.7679 16.2235 13.7547 16.185 13.73L15.738 13.447C15.6771 13.4071 15.634 13.345 15.618 13.274C15.6006 13.2018 15.6098 13.1258 15.644 13.06L16.933 10.607C16.9753 10.5215 17.0617 10.4667 17.157 10.465C17.2025 10.4652 17.2469 10.4783 17.285 10.503L17.732 10.786C17.8574 10.8726 17.8978 11.0395 17.826 11.174L16.537 13.626C16.4956 13.7114 16.41 13.7665 16.315 13.769L16.314 13.768ZM5.77204 14.477C5.81412 14.5621 5.90006 14.6169 5.99504 14.619H5.99604C6.04019 14.6177 6.08311 14.6042 6.12004 14.58L6.56704 14.297C6.62817 14.2568 6.67121 14.1944 6.68704 14.123C6.70468 14.0515 6.69543 13.976 6.66104 13.911L5.37204 11.457C5.32969 11.3722 5.24381 11.3179 5.14904 11.316C5.10501 11.317 5.06211 11.3302 5.02504 11.354L4.57804 11.637C4.51727 11.6766 4.47425 11.7382 4.45804 11.809C4.44009 11.8813 4.44897 11.9577 4.48304 12.024L5.77204 14.477ZM17.525 14.581C17.5636 14.6056 17.6083 14.6188 17.654 14.619C17.7483 14.6182 17.8344 14.5655 17.878 14.482L19.167 12.026C19.2015 11.9598 19.2108 11.8834 19.193 11.811C19.1771 11.7399 19.134 11.6778 19.073 11.638L18.626 11.355C18.5875 11.3303 18.5428 11.3171 18.497 11.317C18.402 11.3187 18.3157 11.373 18.273 11.458L16.984 13.912C16.9494 13.9773 16.9402 14.0532 16.958 14.125C16.9739 14.1961 17.017 14.2582 17.078 14.298L17.525 14.581ZM7.11104 13.626C7.15295 13.7113 7.23899 13.7661 7.33404 13.768L7.33504 13.769C7.38046 13.7687 7.42485 13.7555 7.46304 13.731L7.91004 13.448C7.97103 13.4081 8.01407 13.346 8.03005 13.275C8.04793 13.203 8.03905 13.1269 8.00504 13.061L6.71604 10.608C6.67363 10.5226 6.58732 10.4679 6.49204 10.466C6.44662 10.4661 6.40219 10.4793 6.36404 10.504L5.91704 10.787C5.85614 10.8269 5.81311 10.8889 5.79704 10.96C5.7794 11.0324 5.78864 11.1088 5.82304 11.175L7.11104 13.626ZM6.36304 7.49696C6.40152 7.52171 6.44629 7.5349 6.49204 7.53496L6.49304 7.53596C6.58781 7.53405 6.67369 7.47975 6.71604 7.39496L8.00604 4.93996C8.04005 4.87401 8.04893 4.79796 8.03104 4.72596C8.01507 4.65488 7.97203 4.59282 7.91105 4.55296L7.46405 4.26996C7.42557 4.24521 7.3808 4.23202 7.33504 4.23196C7.23999 4.23383 7.15395 4.28862 7.11204 4.37396L5.82204 6.82696C5.78771 6.89278 5.77847 6.96883 5.79604 7.04096C5.81211 7.112 5.85514 7.17402 5.91604 7.21396L6.36304 7.49696ZM5.02004 6.64396C5.05857 6.66861 5.10331 6.68179 5.14904 6.68196C5.24465 6.68235 5.33238 6.62901 5.37604 6.54396L6.66504 4.08996C6.69938 4.02414 6.70862 3.94808 6.69104 3.87596C6.67498 3.80492 6.63195 3.74289 6.57104 3.70296L6.12405 3.41996C6.08588 3.39534 6.04146 3.38215 5.99604 3.38196C5.90084 3.38424 5.81484 3.43939 5.77304 3.52496L4.48304 5.98196C4.44995 6.0471 4.44109 6.12189 4.45804 6.19296C4.47425 6.26367 4.51727 6.32534 4.57804 6.36496L5.02004 6.64396Z" fill="#262626"/>
</g>
</svg>
