<svg width="18" height="20" viewBox="0 0 18 20" fill="none" xmlns="http://www.w3.org/2000/svg">
<path fill-rule="evenodd" clip-rule="evenodd" d="M14.906 8.33401H15.798C16.2724 8.33295 16.7277 8.52065 17.0635 8.8557C17.3993 9.19076 17.588 9.64564 17.588 10.12V17.264C17.588 18.2504 16.7884 19.05 15.802 19.05H2.70202C1.71564 19.05 0.916016 18.2504 0.916016 17.264V10.12C0.916016 9.13363 1.71564 8.33401 2.70202 8.33401H3.59502V5.65501C3.59502 2.53157 6.12707 -0.000488281 9.25052 -0.000488281C12.374 -0.000488281 14.906 2.53157 14.906 5.65501V8.33401ZM6.57102 8.33401H11.929V5.65501C11.929 4.17544 10.7296 2.97601 9.25002 2.97601C7.77044 2.97601 6.57102 4.17544 6.57102 5.65501V8.33401Z" fill="#1CAE81"/>
</svg>
