<svg width="17" height="16" viewBox="0 0 17 16" fill="none" xmlns="http://www.w3.org/2000/svg">
<path d="M8.10304 0C4.28645 0.000139067 1.00145 2.69627 0.256995 6.43954C-0.487457 10.1828 1.51598 13.9307 5.04209 15.3911C8.5682 16.8516 12.6349 15.6178 14.7552 12.4444C16.8755 9.27094 16.4588 5.04166 13.76 2.343C12.2597 0.842727 10.2248 -7.73115e-05 8.10304 0Z" fill="url(#paint0_linear_0_414)"/>
<path d="M12.2031 5.78806L7.05705 10.9531C6.93907 11.0756 6.78053 11.1509 6.61105 11.1651C6.43848 11.1526 6.27732 11.0742 6.16105 10.9461L4.00305 8.79206C3.97355 8.76327 3.95691 8.72379 3.95691 8.68256C3.95691 8.64134 3.97355 8.60185 4.00305 8.57306L4.68805 7.88806C4.71615 7.85878 4.75497 7.84223 4.79555 7.84223C4.83613 7.84223 4.87495 7.85878 4.90305 7.88806L6.61105 9.59606L11.3031 4.86906C11.3314 4.83988 11.3703 4.82331 11.4111 4.82306C11.4521 4.82183 11.4915 4.83865 11.5191 4.86906L12.1921 5.56906C12.2227 5.59675 12.2408 5.63575 12.2422 5.67707C12.2435 5.71839 12.2279 5.75847 12.1991 5.78806H12.2031Z" fill="white"/>
<defs>
<linearGradient id="paint0_linear_0_414" x1="0.102539" y1="0" x2="0.102539" y2="16.0008" gradientUnits="userSpaceOnUse">
<stop stop-color="#A7E05F"/>
<stop offset="1" stop-color="#12AB97"/>
</linearGradient>
</defs>
</svg>
