<svg width="30" height="21" viewBox="0 0 30 21" fill="none" xmlns="http://www.w3.org/2000/svg">
<path d="M3.35605e-07 1.49201C3.35605e-07 0.668005 0.667992 1.38014e-05 1.492 1.38014e-05H13.507C14.0494 -0.014028 14.5568 0.26733 14.8321 0.734887C15.1075 1.20244 15.1075 1.78258 14.8321 2.25014C14.5568 2.7177 14.0494 2.99906 13.507 2.98501H1.492C1.09612 2.98501 0.716476 2.82768 0.436643 2.54766C0.15681 2.26764 -0.000264997 1.88789 3.35605e-07 1.49201Z" fill="#333333"/>
<path d="M3.35605e-07 10.5001C3.35605e-07 9.67605 0.667992 9.00806 1.492 9.00806H28.507C29.3162 9.02901 29.9614 9.69105 29.9614 10.5006C29.9614 11.3101 29.3162 11.9721 28.507 11.9931H1.492C1.09612 11.9931 0.716476 11.8357 0.436643 11.5557C0.15681 11.2757 -0.000264997 10.8959 3.35605e-07 10.5001Z" fill="#333333"/>
<path d="M1.49201 18.0151C0.667727 18.0151 -0.000488281 18.6834 -0.000488281 19.5076C-0.000488281 20.3319 0.667727 21.0001 1.49201 21.0001H19.507C20.3163 20.9792 20.9614 20.3171 20.9614 19.5076C20.9614 18.6981 20.3163 18.0361 19.507 18.0151L1.49201 18.0151Z" fill="#333333"/>
</svg>
