<svg width="22" height="18" viewBox="0 0 22 18" fill="none" xmlns="http://www.w3.org/2000/svg">
<rect y="0.5" width="21.651" height="17.143" rx="2" fill="white"/>
<mask id="mask0_0_8872" style="mask-type:luminance" maskUnits="userSpaceOnUse" x="0" y="0" width="22" height="18">
<rect y="0.5" width="21.651" height="17.143" rx="2" fill="white"/>
</mask>
<g mask="url(#mask0_0_8872)">
<path fill-rule="evenodd" clip-rule="evenodd" d="M0 1.643H21.652V1.642V0.5H0V1.643ZM21.652 3.929H0V2.786H21.652V3.928V3.929ZM0 6.214H21.652V6.213V5.071H0V6.214ZM21.652 8.5H0V7.357H21.652V8.5ZM0 10.786H21.652V10.785V9.643H0V10.786ZM21.652 13.071H0V11.928H21.652V13.07V13.071ZM0 15.357H21.652V15.356V14.214H0V15.357ZM0 17.643H21.652V17.642V16.5H0V17.643Z" fill="#D02F44"/>
<rect y="0.5" width="9.279" height="8" fill="#46467F"/>
<path fill-rule="evenodd" clip-rule="evenodd" d="M5.15495 2.21494C5.14074 2.51401 5.37004 2.76873 5.66895 2.78594H5.66995C5.96965 2.76979 6.20012 2.51475 6.18595 2.21494C6.20069 1.91476 5.97006 1.6591 5.66995 1.64294C5.37023 1.65962 5.14019 1.91513 5.15495 2.21494ZM7.73095 2.78594C7.43203 2.76873 7.20274 2.51401 7.21695 2.21494C7.19759 2.01865 7.29139 1.8284 7.45889 1.72424C7.62639 1.62007 7.8385 1.62007 8.006 1.72424C8.1735 1.8284 8.2673 2.01865 8.24795 2.21494C8.26211 2.51512 8.03105 2.77032 7.73095 2.78594ZM6.18495 3.35694C6.1702 3.65713 6.40083 3.91279 6.70095 3.92894C7.00106 3.91279 7.23169 3.65713 7.21695 3.35694C7.23169 3.05676 7.00106 2.8011 6.70095 2.78494C6.40083 2.8011 6.1702 3.05676 6.18495 3.35694ZM1.54595 5.07194C1.24623 5.05526 1.01619 4.79976 1.03095 4.49994C1.01677 4.20014 1.24724 3.9451 1.54695 3.92894C1.84665 3.9451 2.07712 4.20014 2.06295 4.49994C2.07769 4.80013 1.84706 5.05579 1.54695 5.07194H1.54595ZM5.66895 5.07194C5.36883 5.05579 5.1382 4.80013 5.15295 4.49994C5.13877 4.20014 5.36924 3.9451 5.66895 3.92894C5.96865 3.9451 6.19912 4.20014 6.18495 4.49994C6.1997 4.79976 5.96966 5.05526 5.66995 5.07194H5.66895ZM7.21495 4.49994C7.2002 4.80013 7.43083 5.05579 7.73095 5.07194C8.03066 5.05526 8.2607 4.79976 8.24595 4.49994C8.2653 4.30365 8.1715 4.1134 8.004 4.00924C7.8365 3.90507 7.62439 3.90507 7.45689 4.00924C7.28939 4.1134 7.19559 4.30365 7.21495 4.49994ZM6.70095 6.21394C6.40164 6.19726 6.17175 5.94238 6.18595 5.64294C6.17177 5.34314 6.40224 5.0881 6.70195 5.07194C7.00125 5.08863 7.23114 5.34351 7.21695 5.64294C7.23112 5.94275 7.00065 6.19779 6.70095 6.21394ZM3.60795 7.35694C3.30783 7.34079 3.0772 7.08513 3.09195 6.78494C3.07777 6.48514 3.30824 6.2301 3.60795 6.21394C3.90765 6.2301 4.13812 6.48514 4.12395 6.78494C4.1387 7.08476 3.90866 7.34026 3.60895 7.35694H3.60795ZM5.15295 6.78494C5.1382 7.08513 5.36883 7.34079 5.66895 7.35694H5.66995C5.96966 7.34026 6.1997 7.08476 6.18495 6.78494C6.19912 6.48514 5.96865 6.2301 5.66895 6.21394C5.36924 6.2301 5.13877 6.48514 5.15295 6.78494ZM7.21495 6.78494C7.2002 7.08513 7.43083 7.34079 7.73095 7.35694C8.03066 7.34026 8.2607 7.08476 8.24595 6.78494C8.2653 6.58865 8.1715 6.3984 8.004 6.29424C7.8365 6.19007 7.62439 6.19007 7.45689 6.29424C7.28939 6.3984 7.19559 6.58865 7.21495 6.78494ZM1.03095 6.78594C1.01676 7.08538 1.24664 7.34026 1.54595 7.35694H1.54695C1.84665 7.34079 2.07712 7.08575 2.06295 6.78594C2.07712 6.48614 1.84665 6.2311 1.54695 6.21494C1.24724 6.2311 1.01677 6.48614 1.03095 6.78594ZM4.12395 5.64294C4.10976 5.94238 4.33964 6.19726 4.63895 6.21394C4.93865 6.19779 5.16912 5.94275 5.15495 5.64294C5.16912 5.34314 4.93865 5.0881 4.63895 5.07194C4.33938 5.0881 4.1092 5.34331 4.12395 5.64294ZM2.57795 6.21394C2.27824 6.19779 2.04777 5.94275 2.06195 5.64294C2.04777 5.34314 2.27824 5.0881 2.57795 5.07194C2.87725 5.08863 3.10714 5.34351 3.09295 5.64294C3.10714 5.94238 2.87725 6.19726 2.57795 6.21394ZM3.09195 4.49994C3.0772 4.80013 3.30783 5.05579 3.60795 5.07194H3.60895C3.90866 5.05526 4.1387 4.79976 4.12395 4.49994C4.13812 4.20014 3.90765 3.9451 3.60795 3.92894C3.30824 3.9451 3.07777 4.20014 3.09195 4.49994ZM4.63895 3.92894C4.33923 3.91226 4.10919 3.65676 4.12395 3.35694C4.10919 3.05713 4.33923 2.80162 4.63895 2.78494C4.93906 2.8011 5.16969 3.05676 5.15495 3.35694C5.16969 3.65713 4.93906 3.91279 4.63895 3.92894ZM2.06195 3.35694C2.0472 3.65713 2.27783 3.91279 2.57795 3.92894C2.87806 3.91279 3.10869 3.65713 3.09395 3.35694C3.10869 3.05676 2.87806 2.8011 2.57795 2.78494C2.27783 2.8011 2.0472 3.05676 2.06195 3.35694ZM3.60795 2.78594C3.30864 2.76926 3.07876 2.51438 3.09295 2.21494C3.0782 1.91476 3.30883 1.6591 3.60895 1.64294C3.90906 1.6591 4.13969 1.91476 4.12495 2.21494C4.13912 2.51475 3.90865 2.76979 3.60895 2.78594H3.60795ZM1.03095 2.21494C1.01676 2.51438 1.24664 2.76926 1.54595 2.78594H1.54695C1.84665 2.76979 2.07712 2.51475 2.06295 2.21494C2.07769 1.91476 1.84706 1.6591 1.54695 1.64294C1.24683 1.6591 1.0162 1.91476 1.03095 2.21494Z" fill="url(#paint0_linear_0_8872)"/>
</g>
<defs>
<linearGradient id="paint0_linear_0_8872" x1="-2.57982" y1="1.64294" x2="-2.57982" y2="7.35694" gradientUnits="userSpaceOnUse">
<stop stop-color="white"/>
<stop offset="1" stop-color="#F0F0F0"/>
</linearGradient>
</defs>
</svg>
